/* XPM */
static char *_e9d12b754914d11f4d5b01f0ec1866a6J1s3Zx45hqCw7BX[] = {
/* columns rows colors chars-per-pixel */
"32 32 194 2 ",
"   c #030007",
".  c #02020C",
"X  c #0A070E",
"o  c #030512",
"O  c #0A0614",
"+  c #040A14",
"@  c #0B0B16",
"#  c #040718",
"$  c #040B19",
"%  c #0B0D1B",
"&  c #120C16",
"*  c #110E1B",
"=  c #031117",
"-  c #081317",
";  c #04121C",
":  c #0C121C",
">  c #0E191F",
",  c #13121D",
"<  c #13181C",
"1  c #041423",
"2  c #0C1421",
"3  c #031B24",
"4  c #0E1C24",
"5  c #051E29",
"6  c #0C1E2B",
"7  c #131522",
"8  c #121B25",
"9  c #1B1B27",
"0  c #121E29",
"q  c #1C1D2B",
"w  c #1A1624",
"e  c #0F2126",
"r  c #04232B",
"t  c #0D242C",
"y  c #0F282E",
"u  c #102327",
"i  c #11242C",
"p  c #1B232D",
"a  c #11292E",
"s  c #1D282C",
"d  c #0D2430",
"f  c #0D2A31",
"g  c #0A2F38",
"h  c #122532",
"j  c #1F2731",
"k  c #132B34",
"l  c #1B2A34",
"z  c #162C39",
"x  c #1A2D3A",
"c  c #0F3037",
"v  c #0F3238",
"b  c #133036",
"n  c #15333A",
"m  c #1C343D",
"M  c #12383B",
"N  c #1C393F",
"B  c #24222D",
"V  c #242632",
"C  c #222B35",
"Z  c #2A2936",
"A  c #252A38",
"S  c #292C3A",
"D  c #273236",
"F  c #21343D",
"G  c #2E373E",
"H  c #21393F",
"J  c #2D3236",
"K  c #32323E",
"L  c #1C3540",
"P  c #153A43",
"I  c #1C3942",
"U  c #223543",
"Y  c #233A43",
"T  c #2A3A45",
"R  c #253E4A",
"E  c #2A3D4B",
"W  c #353643",
"Q  c #383540",
"!  c #3B3A44",
"~  c #343E4D",
"^  c #3A3D49",
"/  c #224146",
"(  c #20424C",
")  c #2B444D",
"_  c #32424D",
"`  c #3D444E",
"'  c #2C4551",
"]  c #2D4A53",
"[  c #2E4F58",
"{  c #304653",
"}  c #324C54",
"|  c #344C59",
" . c #3A4A59",
".. c #36535B",
"X. c #3D515D",
"o. c #3B5C65",
"O. c #3E636C",
"+. c #43424E",
"@. c #434553",
"#. c #484654",
"$. c #4B4A55",
"%. c #4B4D5A",
"&. c #444C55",
"*. c #524E5C",
"=. c #44505E",
"-. c #4C505B",
";. c #54535C",
":. c #455563",
">. c #435B65",
",. c #485865",
"<. c #4B5D6A",
"1. c #485B67",
"2. c #555662",
"3. c #585661",
"4. c #5D5B65",
"5. c #5A5C68",
"6. c #525E6C",
"7. c #615D6B",
"8. c #42636D",
"9. c #4A636D",
"0. c #476772",
"q. c #4C6671",
"w. c #476B75",
"e. c #4E6B75",
"r. c #5C6473",
"t. c #556D77",
"y. c #526D79",
"u. c #4B717A",
"i. c #55737D",
"p. c #5B767D",
"a. c #62646D",
"s. c #636B6E",
"d. c #6A6773",
"f. c #666874",
"g. c #6B6C73",
"h. c #6B6C79",
"j. c #636977",
"k. c #6C7379",
"l. c #76747F",
"z. c #74797D",
"x. c #5A7681",
"c. c #5E7C86",
"v. c #617580",
"b. c #667987",
"n. c #667E8A",
"m. c #767280",
"M. c #767982",
"N. c #727B8A",
"B. c #61848D",
"V. c #6C848F",
"C. c #7A8285",
"Z. c #6C8691",
"A. c #668892",
"S. c #6C8A94",
"D. c #6A8896",
"F. c #778391",
"G. c #7B8594",
"H. c #718B96",
"J. c #7A8D9B",
"K. c #75909B",
"L. c #85848D",
"P. c #8A8B8F",
"I. c #878793",
"U. c #8A8792",
"Y. c #8E8D95",
"T. c #858C9B",
"R. c #8B8E9A",
"E. c #899297",
"W. c #88939C",
"Q. c #97979F",
"!. c #849FAA",
"~. c #8D95A2",
"^. c #9097A7",
"/. c #959BA2",
"(. c #999BA5",
"). c #9199A9",
"_. c #989EAE",
"`. c #83A1AC",
"'. c #9FA4A7",
"]. c #9EA2AA",
"[. c #8AAAB5",
"{. c #9FA5B3",
"}. c #9FABB9",
"|. c #A2A4AB",
" X c #A6A8AC",
".X c #A5ABB7",
"XX c #B2B7BC",
"oX c #B5B6C2",
"OX c #BEBCC7",
"+X c #A9B7C4",
"@X c #BDC3D1",
"#X c #CBCDD9",
"$X c #D1D5E1",
"%X c #F1EFFA",
/* pixels */
"7 7 7 2 2 % % % o @ : . < + - . < X w * * 9 7 9 Z p 7 : 1 4 i l ",
"% 2 % % % % % % , + . - + . . <   @ * @ @ , * O o % 0 a i i t a ",
"# # # # # # # # @ % . o X ^ ;.4.Q.g.@ . . . o + % + $ ; 6 f z k ",
"7 2 % % % # % % o @ O 7 V a.U.U.g.XX(.%.V 7 < o . o + + ; 5 y g ",
"q 0 7 2 2 2 2 2 2 o B +.*.! 3.m.J C.XXE.s.G + u j l U z r 3 3 3 ",
"0 8 4 2 % % % % % 9 +.%.4.Q 3.Y.z.Q.'.s.k.E.&.- 6 U :.b.H.x.( 3 ",
"2 $ $ $ $ % , , # ! $.#.7.7.m.{.|.'. X|.Q.z.` p j i h E x.D.H.B.",
"$ $ $ $ 2 7 0 q 7 ! ! 7.m.d.*.L. X XP.g.G X @ . o $ 6 h z I | 0.",
"+ $ + &.^ j h.2.W q 9 % +.h.#.*.P.L.K X X O 7   # # $ $ $ $ 5 d ",
": . $ ` ].(.$XR.@.2 o o , W @.Q ;.7.&   & X & , @ # # # $ $ 1 1 ",
"  - . - 5.oX#XR.Z p 7 % # Z %.S $.L.+.O & O O O O O O O # # # # ",
"@ O , $.a.d.V q 7 7 O # A A A @.;.(.I.Z o & O o O O O O O # # # ",
"*   ! d.OX].+.: . . q r._.T.r.^.^.T.|.%.o O o * O * : @ O @ % @ ",
"  < B B U.%XoXM.A A T..X).).N.G.+XW..X,.o $ o o + : @ X . O + . ",
"& &   B K U.a.h.(..X@XF.~ =.6.,.b.n.J.:.o $ 4 . X + . . - < <   ",
"&   * , , *   O G $.W A E ~ ,.v.<.n.H.Z.T o $ ; + + + = p D s - ",
"@ - - @ @ @ % , % + $ D _ m 9.} D.>.D.J.G.~ o 1 ; 1 a m m H s = ",
": : : : , , , , 7 : % l T / =...S.`.K.:. .j.=.6 6 d b M / } N = ",
"> > > > < , < w 9 7 ; l F / } >.O.[.`.<.# U r.<.U R Y b f H a . ",
"e e < 4 7 7 7 7 8 7 > s l } { o.n.A.Z.9.# o l ~ 1.y.p.9.} ) N = ",
"e e 4 4 4 7 0 7 8 4 4 a t ] ] [ B.w.c.' 1 6 0 h H ) 9.9.X./ u X ",
"u e u u 0 4 8 0 4 0 6 6 3 ' ..g O.O.D.P $ h U E H k N } .._ s = ",
"a u e e 0 0 0 0 4 0 u 3 5 ' u.r w.u.i.I 3 6 d h E z y n H _ x + ",
"a a i i u t t u 6 i a 3 5 | n.r P w.O.' 5 d l L z n m N T ) C . ",
"a a y y y t y t 6 d L 5 5 L x.{ g P e.e.6 h d z m n N m H T B o ",
"a a y y u y i i d h L 1 1 d x.c.o.o.x.y.x d t k n z b m F T j . ",
"a y y u t t t t d h d d d 1 | 8.w.0.q.q. .d l Y n b n m H T l o ",
"y y u y y y t y d z d d P L L R ] | E  .o.1 h L m N I N m T l + ",
"t t t t t y y f d x z d U E U E R | ~ X.<.d h I I I N N m H j + ",
"t t t t y y f f d U x z ' :.U L I | | X.:.U x I N M M m z F i o ",
"6 t t t h h z z x z h x E o.h # 6 h L L z U t k c n M n z m s + ",
"e t t y f h k z z x x x 6 U d h h h h 1 1 T h g c c M M b I l = "
};
