/* XPM */
static char *_959fedfe047480eaa59e213ee7b8f135F1sdIwpI6wLQPvH[] = {
/* columns rows colors chars-per-pixel */
"32 32 233 2 ",
"   c #060302",
".  c #0C0201",
"X  c #050A03",
"o  c #0B0904",
"O  c #0A0C0D",
"+  c #090708",
"@  c #130401",
"#  c #140A04",
"$  c #1B0C05",
"%  c #130608",
"&  c #140B0B",
"*  c #1B0D0C",
"=  c #1D0500",
"-  c #1C110C",
";  c #1E1005",
":  c #120F10",
">  c #1F0F10",
",  c #1E1311",
"<  c #1F191D",
"1  c #290A01",
"2  c #240905",
"3  c #350C06",
"4  c #231102",
"5  c #23130D",
"6  c #2B140C",
"7  c #2C1908",
"8  c #33140B",
"9  c #3E1C09",
"0  c #361708",
"q  c #241413",
"w  c #2B1513",
"e  c #221814",
"r  c #2C1913",
"t  c #24141A",
"y  c #29161D",
"u  c #261A1A",
"i  c #2C1B1B",
"p  c #321514",
"a  c #341B13",
"s  c #3D1D14",
"d  c #331C1B",
"f  c #381A1A",
"g  c #38210E",
"h  c #2B211D",
"j  c #2F2412",
"k  c #3D2414",
"l  c #35221C",
"z  c #3B231D",
"x  c #3C2A1B",
"c  c #382718",
"v  c #2A1D22",
"b  c #351F21",
"n  c #2C2424",
"m  c #352222",
"M  c #3B2524",
"N  c #3B2A24",
"B  c #382C2A",
"V  c #392A31",
"C  c #431E17",
"Z  c #472C0C",
"A  c #432113",
"S  c #432B1F",
"D  c #4B2A1D",
"F  c #482516",
"G  c #59271C",
"H  c #42311F",
"J  c #57361A",
"K  c #553009",
"L  c #6B381A",
"P  c #743316",
"I  c #432C24",
"U  c #4A2B23",
"Y  c #452D2A",
"T  c #482927",
"R  c #582E25",
"E  c #4C3226",
"W  c #4D342A",
"Q  c #4D3A2B",
"!  c #4B3526",
"~  c #51362D",
"^  c #513A2C",
"/  c #5A3828",
"(  c #4B3833",
")  c #513431",
"_  c #5A3B36",
"`  c #653829",
"'  c #773C23",
"]  c #62352E",
"[  c #5B4128",
"{  c #514030",
"}  c #5B4B3B",
"|  c #564537",
" . c #4D433A",
".. c #6A4A29",
"X. c #7C442E",
"o. c #7D4624",
"O. c #654A33",
"+. c #61463A",
"@. c #664534",
"#. c #774B3B",
"$. c #76553A",
"%. c #6D5636",
"&. c #76603B",
"*. c #5A4D43",
"=. c #65554A",
"-. c #6A5647",
";. c #765A49",
":. c #784E40",
">. c #696854",
",. c #786555",
"<. c #77624F",
"1. c #823C18",
"2. c #803D20",
"3. c #89401F",
"4. c #874829",
"5. c #8C4E32",
"6. c #86543A",
"7. c #975738",
"8. c #8E532D",
"9. c #A75F3A",
"0. c #936337",
"q. c #A6623B",
"w. c #845C43",
"e. c #9A5E44",
"r. c #935D4B",
"t. c #886648",
"y. c #9B6A45",
"u. c #946745",
"i. c #8D734C",
"p. c #9B734B",
"a. c #816E5C",
"s. c #8C6D56",
"d. c #986853",
"f. c #9D7A5B",
"g. c #967B55",
"h. c #A8694A",
"j. c #B36B45",
"k. c #A8764D",
"l. c #A2685A",
"z. c #A77854",
"x. c #B97656",
"c. c #857464",
"v. c #9A7361",
"b. c #B67963",
"n. c #AD7C6B",
"m. c #AA814E",
"M. c #A78658",
"N. c #B48C53",
"B. c #B28D59",
"V. c #B98E5B",
"C. c #BB935C",
"Z. c #B89159",
"A. c #B0884D",
"S. c #85826F",
"D. c #95806D",
"F. c #AA8B6C",
"G. c #A88867",
"H. c #B68462",
"J. c #B88A62",
"K. c #B49565",
"L. c #BD9463",
"P. c #BA966B",
"I. c #B0966A",
"U. c #AB937A",
"Y. c #BA9674",
"T. c #BC9C74",
"R. c #B59877",
"E. c #AC916F",
"W. c #BBA376",
"Q. c #B8A16B",
"!. c #C19969",
"~. c #DE976B",
"^. c #C28973",
"/. c #CB9975",
"(. c #D58E64",
"). c #E19A6C",
"_. c #CAA468",
"`. c #D0A86C",
"'. c #C3A274",
"]. c #C5A97C",
"[. c #C5A678",
"{. c #D1AE75",
"}. c #C6B27F",
"|. c #D7B27A",
" X c #9F9685",
".X c #B09C83",
"XX c #BFB085",
"oX c #AAA492",
"OX c #BCA88F",
"+X c #CF9784",
"@X c #C09C86",
"#X c #D69C86",
"$X c #C6AB87",
"%X c #D4A18A",
"&X c #C9B487",
"*X c #D4B384",
"=X c #D4BC8C",
"-X c #D6B98A",
";X c #C6B897",
":X c #DABF90",
">X c #D6AE95",
",X c #E1B29E",
"<X c #E9AC97",
"1X c #C7BBA8",
"2X c #D1C18E",
"3X c #CCC59B",
"4X c #D7C396",
"5X c #E0C28E",
"6X c #E0C29C",
"7X c #D4CFA3",
"8X c #D8C7AB",
"9X c #D3D5AD",
"0X c #D9D2A4",
"qX c #C8CCB5",
"wX c #D7CCB7",
"eX c #CBD5B6",
"rX c #D4D1B3",
"tX c #EAD6B7",
"yX c #D6E0BE",
"uX c #D3DBC2",
"iX c #D6D3C0",
"pX c #E4DBC4",
"aX c #DDE6CA",
"sX c #E4EACE",
"dX c #F5E6C8",
"fX c #E7E9D2",
"gX c #EBF3D3",
"hX c #EBF2DA",
"jX c #E7F4D8",
"kX c #F3F4DA",
"lX c #F5F8DB",
"zX c #F0EED9",
"xX c #F9FCE2",
/* pixels */
"r 5 # X X X O O : % v t & v n B m q   # # # - . w m b v y &   o ",
"r 5 - o X X X X + . t y u , # u 5 5 * e o   . @ q b b i q &   o ",
"5 5 - & X X     % * y b M -   * r l N ( l o - * q b M d r &   o ",
"r 6 5 # X X o # b b M M ( M . 2 a l Y *. .h e . w b b b u &   o ",
"a w 5 # . o - u d Y ) M _ _ 2 = 6 0 I -.=.( N # w M M b i :   + ",
"d a 5 # . # u B b ) _ T _ / 2 @ 8 C ! +.=.*.| h w M M b i *   + ",
"d a w # . # h Y T W ] R R R 9 3 C F A D { } } j w M I b b *   o ",
"f d r $ . # i Y T C ] R G ` ' :.#.` A 9 | <.=.- r M M b b * . o ",
"M w w q . @ z ) T 3 G l.#X#X^.%X#Xn.d.A 0 } ;.7 r I I M m *   : ",
"M f y 2 @ $ j s 1 G r.#X<X%X/./.^.+X,X@XO.Q { 7 g Y I m m ,   % ",
"b M w * $ 5 6 8 C :.l.^.x.j.^.j.y.e.d.>XE.U.a.= j I I l b > % % ",
"b M w $ - $ 4 U #.r.2.5.P P q.3.2.' ' G.E.$XOXx a I E M y * % . ",
"b T r - $ @ c ;.l.r.' 2.2.1.j.8.2.2.5.l.f.F.tXU.a S Y Y a * % % ",
"b b i - # ; ^ v.v.r.e.x.9.9.).(.j.9.e.z.f.i.1X8XQ I Y ( d * % % ",
"b b i * # x -.s.d.w.l.x.9.j.).~.j.h.x.H.s.$.G.8X<.E I W b 2 % % ",
"b m n # # { ,.;.w.' h.x.9.j.x.9.2.5.7.z.z..X.X8XD.^ z ) M > & % ",
"V i i 4 $ O.E.$.0.p.5.4.e.e.' L 5.7.y.i.U.1X1X1X;.E D ~ z q & + ",
"i B M $ @ O.].B.p.z.u.y.b.b.w.X.4.k./.$X8XpXwX1X;.E U ~ m - : O ",
"l l 4 4 Z i.}.'.z.Z.(.z.y.5.' L o.h.&XtXpXpXiXoX-.E U ~ N , : O ",
"H j 7 %.E.'.{.{.!._.*X/.k.d.x.H.0.M.,XdXdXzXfX X| ~ E ~ N , O O ",
"7 J &.W.4X{._.|._.N.Z.Z.k.!./.V.!.P.4XdXzXzXzXc.Q Q W ! N e O O ",
"Z i.W.4X4X|.{._.{._.`._.Z.L.!.m.'.P.&X8XkXzXfX>.x ^ ^ ! N e O O ",
"g.].=X4X-X|.{.A.A.C.`._.N.B.L.L.'.'.&X9XlXgXfX>.j Q Q I N e O O ",
"E.W.T.'.K.m.m.0.A.N.C.Z.B.B.K.K.L.Q.&X3XlXsXfX>.7 Q ^ I N , X O ",
"$.......K K J K 8.M./.P.Z.K.K.K.I.W.2X7XhXhXuX>.j j x I c - O O ",
"0 Z [ / K $.t.L ..p.R.T.P.T.].].W.}.3X9XjXjXuX>.c 7 a S N h : + ",
"k 0 k D A F J A J w.G.Y.Y.$X*X-X2X2X7X9XjXjXaXS. .c 7 a T B u : ",
"x 6 a S k 8 D / D #.v.U.R.T.].$X=X2X0X9XjXjXjXoX,.{ 1 1 f B v < ",
"@ 5 z d r C T f D @.s.G.I.I.Q.}.2X2X0X9XaXsXxX1Xc._ 8 1 d l v v ",
". * 5 q 2 * 2 p S / w.G.G.I.I.Q.|.2X0X9XeXaXhXqXc.+.C 3 f d v t ",
"* . @ y b w f ) s D %.M.M.M.M.Q.}.2X7X9XeXeXhXwXc.+.C 8 p p t t ",
"  & , y M b 6 2 a c [ ,.i.M.M.K.W.}.3X7XqXqXhXiXc.+.C 3 8 p t y "
};
