/* XPM */
static char *fa1ba72ce2a34f87d1dea87252c4fa62rrimG5fXCkOKeiJT[] = {
/* columns rows colors chars-per-pixel */
"32 32 248 2 ",
"   c #0D0705",
".  c #130305",
"X  c #150A01",
"o  c #150B0C",
"O  c #1A0B07",
"+  c #1E1505",
"@  c #18110C",
"#  c #1D1414",
"$  c #1D0E13",
"%  c #270C0C",
"&  c #24140C",
"*  c #29190D",
"=  c #3B190A",
"-  c #241613",
";  c #2A1412",
":  c #291917",
">  c #371C12",
",  c #36270C",
"<  c #2D241A",
"1  c #2E2215",
"2  c #3B2B1C",
"3  c #382616",
"4  c #2F230D",
"5  c #361D20",
"6  c #392824",
"7  c #3E3120",
"8  c #4D1F10",
"9  c #49261E",
"0  c #462719",
"q  c #542A1C",
"w  c #42331C",
"e  c #49371F",
"r  c #55361D",
"t  c #472F0D",
"y  c #633A1A",
"u  c #482C25",
"i  c #542C24",
"p  c #433423",
"a  c #4B3B23",
"s  c #4B382B",
"d  c #5B3C2B",
"f  c #553629",
"g  c #553A33",
"h  c #583833",
"j  c #4F3C38",
"k  c #653E2D",
"l  c #643B36",
"z  c #743C33",
"x  c #56442C",
"c  c #5A432A",
"v  c #584A2A",
"b  c #544232",
"n  c #584534",
"m  c #5C4B34",
"M  c #504831",
"N  c #57543B",
"B  c #4D4835",
"V  c #68472B",
"C  c #68512F",
"Z  c #634C32",
"A  c #644838",
"S  c #734C39",
"D  c #645233",
"F  c #6B5335",
"G  c #6C533B",
"H  c #6C5A3C",
"J  c #61543A",
"K  c #75573A",
"L  c #7A673B",
"P  c #736636",
"I  c #5C5543",
"U  c #574C4A",
"Y  c #6B5945",
"T  c #6D5D4A",
"R  c #665847",
"E  c #765C45",
"W  c #65554E",
"Q  c #6C634C",
"!  c #746544",
"~  c #7A6343",
"^  c #7C6C44",
"/  c #7C654B",
"(  c #7E6D4A",
")  c #74684B",
"_  c #6B6354",
"`  c #6D685D",
"'  c #776A55",
"]  c #7B7459",
"[  c #797256",
"{  c #7E704D",
"}  c #666661",
"|  c #7B7664",
" . c #746F62",
".. c #855A3B",
"X. c #87773A",
"o. c #957C37",
"O. c #8F6F36",
"+. c #875B47",
"@. c #965E4F",
"#. c #836C4C",
"$. c #866747",
"%. c #956348",
"&. c #897445",
"*. c #8B7D46",
"=. c #84724C",
"-. c #8A754C",
";. c #8B7B4B",
":. c #847846",
">. c #967B4A",
",. c #8B6A55",
"<. c #896C55",
"1. c #857454",
"2. c #8A7454",
"3. c #8C7B53",
"4. c #8C7559",
"5. c #86795B",
"6. c #957B5B",
"7. c #987855",
"8. c #966658",
"9. c #A4785F",
"0. c #877D65",
"q. c #957C6B",
"w. c #A37B65",
"e. c #9A8738",
"r. c #9D8B36",
"t. c #A2883C",
"y. c #A49037",
"u. c #938343",
"i. c #9C894B",
"p. c #9A8649",
"a. c #8A8158",
"s. c #958354",
"d. c #9C8455",
"f. c #94845A",
"g. c #9B8C5B",
"h. c #9A865B",
"j. c #9C9453",
"k. c #A58C49",
"l. c #AA9548",
"z. c #B5964A",
"x. c #A48C54",
"c. c #A2825D",
"v. c #A18C5D",
"b. c #A98D5E",
"n. c #AB9653",
"m. c #AC955B",
"M. c #A99758",
"N. c #B59A57",
"B. c #B1865B",
"V. c #B4A24B",
"C. c #B8A557",
"Z. c #B3AA59",
"A. c #898568",
"S. c #928363",
"D. c #9C8B63",
"F. c #9C8868",
"G. c #9E946C",
"H. c #8A8776",
"J. c #968C75",
"K. c #959373",
"L. c #A48462",
"P. c #A88C69",
"I. c #A69363",
"U. c #A6946B",
"Y. c #AC9A6D",
"T. c #AA9769",
"R. c #B39A6B",
"E. c #B69868",
"W. c #AD9A73",
"Q. c #A79875",
"!. c #B59976",
"~. c #B48E6D",
"^. c #B3A26D",
"/. c #BBA867",
"(. c #B4A475",
"). c #BDAE7C",
"_. c #B8A674",
"`. c #B9AE6C",
"'. c #C2A75D",
"]. c #C5B15B",
"[. c #C19767",
"{. c #C29C78",
"}. c #C5A867",
"|. c #C3B26D",
" X c #C9B76A",
".X c #D5BE6F",
"XX c #C0AD72",
"oX c #C6AB78",
"OX c #C4B474",
"+X c #C8B979",
"@X c #D2B675",
"#X c #CCC47B",
"$X c #D5C37B",
"%X c #9A9786",
"&X c #B59B80",
"*X c #ACA286",
"=X c #BDA482",
"-X c #BCAD84",
";X c #B6A786",
":X c #BCB382",
">X c #BEB18F",
",X c #B7A893",
"<X c #C8A686",
"1X c #C4B585",
"2X c #C9B683",
"3X c #CBBC84",
"4X c #C4B88B",
"5X c #CCBD8C",
"6X c #C5B689",
"7X c #D2BD8A",
"8X c #DBBA8B",
"9X c #C9B694",
"0X c #DAB994",
"qX c #D0AC8E",
"wX c #E2BC8F",
"eX c #D0BAA2",
"rX c #CBC38A",
"tX c #D1C184",
"yX c #D5CA8F",
"uX c #DAC98C",
"iX c #D5C48A",
"pX c #D5C994",
"aX c #D8C896",
"sX c #DDD294",
"dX c #DDD29D",
"fX c #D6CD91",
"gX c #E6C68C",
"hX c #E3D99F",
"jX c #E7C891",
"kX c #D8CAA4",
"lX c #DED2A2",
"zX c #DBCAB3",
"xX c #D3CCB2",
"cX c #E2D5A2",
"vX c #E6DBAB",
"bX c #E8DBB7",
"nX c #ECD2B0",
"mX c #F5E9BC",
"MX c #ECE3B3",
"NX c #DDDBC4",
"BX c #E5DAC4",
"VX c #EBE6C5",
"CX c #F9EECB",
"ZX c #F6EAD7",
"AX c #FCF3D5",
"SX c #EAE5D2",
"DX c #FBF7E2",
"FX c #FFFBF8",
/* pixels */
"} %X_ U B B | K.' _ | H.H.H. .} H.J.q.%X ._ N I I _ U N U R J ` ",
"Q H P K ^ :.^ =.:.:.u.f.g.f.U.W.4X(.f.;X4XL.m.e.X.3.X.X.X.O.L ! ",
"S.P X.*.o.o.p.s.d.d.s.6.J G G L.E.;XCX(._.>.N.l.o.k.t.y.t.o.o.) ",
"A.*.p.N.p.p.7XiX5X+X2X!.A A r L R.ZXFXZX7.V -.oXe.t.t.e.e.e.*.R ",
"0.:.u.x.i.i.3X2X+X^.d.2.<.S V k.gXAXDXbX7.V V d.r.o.r.r.M.C.u.N ",
",Xj.x.n.k.n.g.i.v.-.h.E E w.~.8.}.3X2X8Xc.k K x.z.z.z.N.}.'.o.m ",
"%XM.V.C.N.^.^.^.R.K E A S {.<XqX!.0XoXwX4.8 ,.P.k.}.}.C.}.'.i.| ",
"5.Z.Z.|.m._.mXmX9XI s h L.$.%.&X&XwXwXmXS.a ,.6.-.}.].Z.].Z.j.| ",
"A.`.Z. X/.|.aXlXY.m & b 8.i 5 i ..i i K w.d h Z >.`./.OX+X#Xj.I ",
"K.`.$X$X+XOXY.T.T.H 6 U ..S f E ~.G +.c.7.> u G p.7XtXiXjXsX).Q ",
"A.OX.X X`.XX).+X<XY   s [.B.c.<XCX6X8XjXh.p h E I.aXpXyXpXsX:XI ",
"0.tX.X XOXOXcXmXP.1 # - B.[.7.0XCXqX[.gX$.2 ' $.1XnXlXdXaXpX:X` ",
"A.#X.X$X#XXX3X3XF.p @ : E %.%.,.' P.O.~.G $ W $.4XkXaXlXkXpX:X_ ",
"] M.}./.m./.R.^.>.v 1 # n +.z 0 8 V V 8.j s u K rXkXpXlXlXlX)._ ",
"' i.C.n.i.`.+XiXuX`.f.- < l z S z +.S V ; u , h.uXdXpXpXdXdX:X .",
"] M.C.C.l.|.uX3X$XsXv.:   a @.%...7.+.> X J 5XaXuXuXyXaXaXsX:XK.",
"] n.z.'.n.oXI.+XvX-XM @ X % f V S y q :   ! vXVXBXlXpXfXlXcX+X{ ",
"0.l.z.V.y.^.5XbXbXG.w @ . % 9 0 9 i 8 . . > J.SXSXAXmXpXlXhX4X] ",
"a.e.z.V.#XvXVXNXW.5.a 3 2 u f d f V A g I m 5.*XG.kXDXAXbXsXrXA.",
"{ V.C.rXMXbXQ.[ ( =.=.#.H / / ~ ^ $.2.3.3.f.h.h.a.5.xXZXxXrXrX[ ",
"a.V.M.Q.pXQ.#.H ( 2.4.=.<.4.1.2.1.2.6.D.a.4.#.F.q.Y U.pX).3X_.] ",
"H.e.T.:.(.=X6.w.#.G ~ E Y R H m v Z Z v D F F F ,.Q.4X1XU.2Xd.0.",
"5.X.v.-.D.nX<XqX!.P.( E ) 5.H D.S.=.&.-X-X>.x.U.N.qXxXzX9XT.L K.",
":.X.6.1.4XzX9XR.oX8X7.G.Q.4X;.iX,X(.-.,X&Xs.N.(.[.kXZXBXeXg.*.` ",
"A.s.f.<.:XpXkXqX~.9X!.F.pXkXa.U.;XQ.4.9XU.h.I.T.7.7.<X~.qXD.a.! ",
"{ a.C / U.7.9.w.O.E.v.g.lXlXf.U.uX).-.rX7Xp.x.OXk i V 7.0XY.3._ ",
"' G.3.d @.w.8 S 7.$.L ! S.5.H ~ 2.#.Z F ( D c c 8 d +.6.F D.G._ ",
"Y H , e l 8 l h ,.S c x m Z c Z H #.#.=.-.L 5./ c g > = 9 H ^ ] ",
"R ! ( f l u ; . t 3.T.U.(.I.L ;.Y.D.D.Y.I.s.D.1.n % % f i <.>XJ.",
"Q p S.T 5 j +   - 6 g b w b x x v x x x e e , 4 & . - u I x *XH.",
"_ 4 { T   @   o * 7 7 w 7 w 2 M a s 2 p s p w 3 1 - O X X & )  .",
"R p Q.,   @ X o < < < * & & - # * & : : ; 3 3 b M o # # X & J ' "
};
