/* XPM */
static char *f4b9393674e548ce8dce09c1b1b3e758lV2WQWMtGytwahel[] = {
/* columns rows colors chars-per-pixel */
"32 32 138 2 ",
"   c #353B55",
".  c #393F57",
"X  c #3B4254",
"o  c #41465A",
"O  c #444A5B",
"+  c #474E60",
"@  c #465167",
"#  c #4B5364",
"$  c #4D5A6D",
"%  c #535665",
"&  c #525A67",
"*  c #545A6B",
"=  c #5A5D6C",
"-  c #555E72",
";  c #595E73",
":  c #5C606C",
">  c #546077",
",  c #5B6475",
"<  c #5D667C",
"1  c #5D697B",
"2  c #626775",
"3  c #62677A",
"4  c #636A7D",
"5  c #696D7D",
"6  c #5B6682",
"7  c #5D6C83",
"8  c #606781",
"9  c #646D81",
"0  c #696E83",
"q  c #626F8F",
"w  c #667183",
"e  c #6C7485",
"r  c #65738D",
"t  c #6B758B",
"y  c #6E7A8D",
"u  c #707686",
"i  c #707885",
"p  c #707588",
"a  c #737B8D",
"s  c #787F8E",
"d  c #647191",
"f  c #6E7692",
"g  c #6D7B92",
"h  c #6B7A9A",
"j  c #737C93",
"k  c #7A7F92",
"l  c #727E99",
"z  c #787F9B",
"x  c #7A808E",
"c  c #738196",
"v  c #7B8294",
"b  c #75839A",
"n  c #7B849A",
"m  c #7D899D",
"M  c #7583A2",
"N  c #7B87A3",
"B  c #7D8AA3",
"V  c #7D8CAB",
"C  c #7F91A9",
"Z  c #828594",
"A  c #838996",
"S  c #81869A",
"D  c #848A9C",
"F  c #888E9E",
"G  c #8B939E",
"H  c #848DA3",
"J  c #8A8FA4",
"K  c #818FAB",
"L  c #8E8FAB",
"P  c #8591A4",
"I  c #8C92A4",
"U  c #8594AC",
"Y  c #8C95AA",
"T  c #8D99AD",
"R  c #9093A3",
"E  c #9298A5",
"W  c #9196AC",
"Q  c #949BAC",
"!  c #999EAD",
"~  c #8493B2",
"^  c #8B96B1",
"/  c #8C99B4",
"(  c #8897B8",
")  c #9096B0",
"_  c #939DB3",
"`  c #999EB3",
"'  c #929EBA",
"]  c #999EB9",
"[  c #9AA0AC",
"{  c #95A2B5",
"}  c #9CA2B3",
"|  c #95A2BC",
" . c #9AA4BB",
".. c #9DA9BC",
"X. c #A1A6B5",
"o. c #A3AAB6",
"O. c #A2A6BB",
"+. c #A3AABC",
"@. c #A9AFBD",
"#. c #ABB1BE",
"$. c #B0B2BF",
"%. c #95A4C1",
"&. c #9AA5C1",
"*. c #9DABC3",
"=. c #9EB0C8",
"-. c #A3ADC3",
";. c #A1ADC9",
":. c #A9AFC9",
">. c #A4B2C4",
",. c #ACB2C3",
"<. c #A4B3CB",
"1. c #ABB5CB",
"2. c #ADB9CD",
"3. c #B0B7C7",
"4. c #B4BCCD",
"5. c #B9BECD",
"6. c #A6B5D1",
"7. c #A9B7D1",
"8. c #ABBAD3",
"9. c #AFBED8",
"0. c #B2BDD4",
"q. c #B1BFD9",
"w. c #AEC0D8",
"e. c #B5C2D5",
"r. c #BAC2D4",
"t. c #B4C2DA",
"y. c #BAC6DB",
"u. c #BBC9DE",
"i. c #B7C7E0",
"p. c #BCCCE3",
"a. c #BECEE8",
"s. c #BED2EA",
"d. c #C2CEDE",
"f. c #C3CDE2",
"g. c #C2D0E4",
"h. c #C3D2EA",
"j. c #CBDDF5",
"k. c #D3E2F9",
/* pixels */
"w.u.i.*.t.0.0.0. .2.H Y y.y.e.y.v S W } -.] _ i.i.~ V l h 7 > g ",
"s.i.w.j.a.8.1.-.>.e.j *.f.y.2.{ > D W ` ) Y ' ] / ^ %.' | / B g ",
"j.s.=.p.k.9.p.p.g.2.m { 0.U B 6.t U 2._ z H B ~ %.=.t.7.t.9.<.w ",
"| s.s.p.p.f.u.i.y.w.c m m ~ 9.h.m j J Y )  .<.;.8.1.9.9.t.6.*.- ",
"C U j.i.i.f.p.h.p...c _ i.a.8.p.-.9 H J ] ] ] ] &.%.6.6.9.=.&.- ",
"8.^ V i.t.i.h.| Y m w.e.p.h.t.p.0.4 ` I J L N ) ] %.*.;.6.6._ - ",
"w.w.%.b e.8.b N >.y.e.y.w.p.p.u.p.c D W ) L ) ^ | | ' %.*.6.H ; ",
"8.w.9.P t 6 ..h.u.>.y.y.u.y.u.t.g.b D _ ) ] ^ ] / _ %.%.' ;.b 0 ",
"w.e.*.c B r H 1.,.3.4.p.a.p.0.t.d.J n ' ] ) ' ' ~ K { ) ) :.> P ",
"P T c *.8.8.g 9 Q g.2.y.f.0.t.y.u.U n &.' ( ' ' / B H Y z   # { ",
"b r =.6.8.7.t.B e Y 1.e.t.8.e.4.u./ l *.' ' ' ] U ) W o . 8 < m ",
"B 6.6.6.<.u.6.9.Y e U u.4.e.1.0.d._ H &.] -.;.-.-.L O = J ~ t P ",
"=.w.<.w.t.t.7.1.8.U c P e.d.y.5.4.D p e j S j e 1 X , a H H K / ",
"w.=.<.2.1.w.8.8.>.2. .1 _ 5.` e - , k a a j e z n 4 5 t H z K z ",
"6.<.w.=.<.>.1.=.=.=.w.4.v , O k +.,.-.Y m H l ~ t.y 1 Y K f H K ",
"6.=.>.1.2.1.1.6.8...T E -.! -.J _ 2.<./ h r d ' 8.1 m  .n z N l ",
"/ ..*.{  ._ I { D e p D @.` X.H =.2.e...c g C 9.-.g U M K ~ N g ",
"v y x a Y D { I S ,.O.J R J H Q >.e.y...C *.6.*.g m K V ~ ( U V ",
"@.2.o.I ..5.,...} } 5.! S J I ,.>.o.e.>.U 6.| =.l N l ~ ( ( M V ",
"e.3.0.@.G ,.4.} ,.#.,.o.k } Q #.>.e.e.>.b 8.<.c n t r M V ( V ~ ",
"#.@.#.,.! S ,.@.@.o.,.5.} I #.$.[ $.#.x e +.n w  .n 6 z V V ( V ",
"@.3.#.,.3.F S [ o.r.y.+.a ! #.o.5.R : % v j e k } &.h N h h V h ",
"@.o.,.,.+.o.I i [ +.o.v v S X.@.i * s Q -.] -.O.4 J _ N d h V M ",
">.,.,.o.,.o.@., s I Y >.R e X.2 , Q ....&.;.:.:.A , | ' ~ M V ( ",
"o.,.o.#.o.#.s & W <.,.:.H 9 a p  . .} Q Q Q } } O.p , [  .~ V | ",
"o.@.o.[ #.A % G 3.-.-.O.Y 3 k @. .W } Q X.} Y ` ` Q , w ..' | c ",
"+.#.! X.E = Z X...I Q Q _ k a ,.>.Q ! I I ! Q Y A ! R & m { U g ",
"Q o.o.E = u R R F A H S I E 4 R @.E Q F k S Q J I F G s > P n { ",
"X...W & i D D J H D J S I E 2 v [ A G R J k S I A E G i O 4 T ..",
"I I # 5 F D D J S Z D n W ! i 5 I D E D Q F 5 D S i E s * , 2 v ",
", @ < H H j z z n l j y H I m & D Y P k D j 3 5 3 5 F s * v O # ",
"< $ n p j j l l g j t H S v v O v D j n j * 4 # X x v s ; ; k O "
};
