/* XPM */
static char *_b6ee24132c446ff8c5776b208d4dda6Z9NKBzaqroOaRrec[] = {
/* columns rows colors chars-per-pixel */
"32 32 220 2 ",
"   c #000A06",
".  c #000E0B",
"X  c #000707",
"o  c #031613",
"O  c #021914",
"+  c #0A1A16",
"@  c #011D19",
"#  c #0B1A19",
"$  c #121C1B",
"%  c #02231D",
"&  c #07221B",
"*  c #13221F",
"=  c #092A26",
"-  c #142C25",
";  c #182623",
":  c #08332F",
">  c #18372E",
",  c #073939",
"<  c #1D3C34",
"1  c #11393B",
"2  c #26352C",
"3  c #273935",
"4  c #323C3B",
"5  c #1B423F",
"6  c #224236",
"7  c #27473D",
"8  c #30403D",
"9  c #0C3D45",
"0  c #1A3E43",
"q  c #044245",
"w  c #0B4445",
"e  c #024649",
"r  c #0B464A",
"t  c #024C4C",
"y  c #0C4A4A",
"u  c #064847",
"i  c #1D4643",
"p  c #14444B",
"a  c #194548",
"s  c #0E524F",
"d  c #164E53",
"f  c #045554",
"g  c #0D5454",
"h  c #065C5B",
"j  c #0C5E5D",
"k  c #0A5757",
"l  c #145454",
"z  c #1C5459",
"x  c #145B5A",
"c  c #1B5957",
"v  c #0E4F4F",
"b  c #2C4E4C",
"n  c #274B47",
"m  c #334B44",
"M  c #3B4C44",
"N  c #394B4A",
"B  c #29534D",
"V  c #38554D",
"C  c #274D52",
"Z  c #21555C",
"A  c #245B5D",
"S  c #2C5B5B",
"D  c #285455",
"F  c #345B5A",
"G  c #3B5A55",
"H  c #16615D",
"J  c #0B615E",
"K  c #27615E",
"L  c #34615D",
"P  c #3C6358",
"I  c #1C5B60",
"U  c #265E63",
"Y  c #375E62",
"T  c #0E6964",
"R  c #146463",
"E  c #136C6B",
"W  c #1B6B6A",
"Q  c #1C6464",
"!  c #17726C",
"~  c #1D7573",
"^  c #1D7974",
"/  c #246363",
"(  c #2A6461",
")  c #256B69",
"_  c #3C6364",
"`  c #376867",
"'  c #38726D",
"]  c #2B6F70",
"[  c #257576",
"{  c #287977",
"}  c #387B78",
"|  c #475D55",
" . c #545B57",
".. c #48524B",
"X. c #45605B",
"o. c #4A635B",
"O. c #456C5E",
"+. c #47665C",
"@. c #55695E",
"#. c #4B6A64",
"$. c #4B6C6A",
"%. c #4A6964",
"&. c #546B63",
"*. c #5A6C63",
"=. c #536E69",
"-. c #526660",
";. c #4B746A",
":. c #537166",
">. c #54736B",
",. c #5D726D",
"<. c #5C7A6E",
"1. c #4D6F70",
"2. c #4B7A75",
"3. c #527675",
"4. c #547972",
"5. c #5C7A73",
"6. c #5C7C7B",
"7. c #577A77",
"8. c #646B64",
"9. c #65796D",
"0. c #637B74",
"q. c #657D78",
"w. c #6C7D7B",
"e. c #667A72",
"r. c #27807A",
"t. c #48807B",
"y. c #5E8578",
"u. c #638379",
"i. c #6C857C",
"p. c #628B7D",
"a. c #698175",
"s. c #70867C",
"d. c #748B7E",
"f. c #64907F",
"g. c #307E80",
"h. c #368684",
"j. c #468886",
"k. c #40908D",
"l. c #5A908E",
"z. c #6B8681",
"x. c #6C8D83",
"c. c #698A87",
"v. c #738B84",
"b. c #7A8B84",
"n. c #748E89",
"m. c #788A86",
"M. c #6A9486",
"N. c #74938B",
"B. c #7C948C",
"V. c #719B8C",
"C. c #7C998E",
"Z. c #789286",
"A. c #769E91",
"S. c #7D9E93",
"D. c #789794",
"F. c #76A193",
"G. c #7CA395",
"H. c #7EA699",
"J. c #7EA99B",
"K. c #80948C",
"L. c #82998D",
"P. c #839B94",
"I. c #8B9F99",
"U. c #889892",
"Y. c #82A297",
"T. c #84A59B",
"R. c #8BA49C",
"E. c #82AB9D",
"W. c #89A99E",
"Q. c #91A59E",
"!. c #85ACA1",
"~. c #8CABA1",
"^. c #92ACA3",
"/. c #99ACA5",
"(. c #85B3A3",
"). c #8AB2A5",
"_. c #8CB5AA",
"`. c #8DBBAC",
"'. c #94B5AD",
"]. c #9BB4AB",
"[. c #93B9AD",
"{. c #9BB6AC",
"}. c #94BCB2",
"|. c #9CB9B0",
" X c #A3BDB4",
".X c #A8BFB7",
"XX c #A3BBAE",
"oX c #94C2B4",
"OX c #9BC1B6",
"+X c #9CC4BA",
"@X c #9DCBBC",
"#X c #96C5B8",
"$X c #9DD0BF",
"%X c #A4C3B9",
"&X c #A3CABE",
"*X c #AEC8BF",
"=X c #A3C1B7",
"-X c #9ED3C1",
";X c #A4CDC3",
":X c #AACFC3",
">X c #B4CFC6",
",X c #A3D4C4",
"<X c #ABD2C5",
"1X c #A7D2C8",
"2X c #AAD4CB",
"3X c #ABDACB",
"4X c #A4D9C7",
"5X c #B3D5CB",
"6X c #B5D9CD",
"7X c #BBD5CD",
"8X c #AEDAD1",
"9X c #AFDDD3",
"0X c #B1DCD3",
"qX c #B3E0D6",
"wX c #B9E3D6",
"eX c #B5E3D9",
"rX c #B8E4DB",
"tX c #BEEBE1",
"yX c #C0DBD2",
"uX c #C1EDDE",
/* pixels */
",X-X-X4X,X#X@X3XwXwXwXwX6X3X$X&X$X3XwXqX0X2X0X0X0X0X9XeXtXtXeXtX",
"-X,X-X4X,X$X4X3XuXwX*X3X*X&X*X*X*X3X1X,X0XtX0X1X0X0X9X0X9X9X9XtX",
"-X-X4X$X$X4X3X3X6X$X@X$X3X%XOX@X;X1X1X;X;X2X2X2X2X2X2X8X9X9X9XeX",
"$X$X$X#X@X3X5X$X&X&X&X*X6X6X&X&X2X1X2X6X2X}.;X0X1X;X1X2X9X8X9X9X",
"oXoXoXoXoX@X@XoXoX&X&X&X&X6X7X<X5X;X;X2X0XrX2X;X1X;X;X1X1X;X1X1X",
"oXoXJ.(.).oX).(.OX&X*X@X=X=X|.).!.'.~.E.'.:X1X}.1X;X;X;X;X}.}.#X",
"(.(.(.E.E.E.E.E.&X=X[.~.Y.x.N.Y.c.6.%.G G 7.H.;X;X+X#X#X#X}.J.}.",
"oX(.E.(.E.F.V.Y.[.p.| V 6 5 +.T.~.n   o = < 7.;X+X}.}.}.}.oXJ.`.",
"(.(.J.F.A.G.E.).p.6 & & O - <. X Xz.X.| %.u.T.|.J._.'.!._._.A.J.",
"(.(.(.`.).G.G.W.Y.:.P :.=.q.^.>X7X|.~.~.R.Y.T.T.J._._.!._._.J.J.",
"f.J.E.J.G.E.~.W.C.C.Y.R.R.^..X>X.X].^.^..X7X>X).H.D.!.!.F.F.F.V.",
"f.J.G.y.u.E.[.W.W.%X7X%XR.^.].XXXX/.L.0.v. X*XW.!.D.H._.F.V.J.V.",
"V.C.f.p.f.Y.W.S.{.5X>XR.Z.L.Q.^./.].^.w.X.@.C.).C.y.;.f.M.M.J.M.",
"f.O.O.f.W.L.M.C.^.{.C.0.s.R./././.U.Q.I.9.+.a.W.f.+.6 P l.y.F.y.",
":.7 6 O.S.T.C.N.Y.S.0.>.B.~.I.I.U.K.b.e.*.*.9.<.d.y.7 O.p.;.M.f.",
":.7 = 6 <.W.W.Z.v.d.>.@.q.9.-.-...9.*.2 - *.d.:.:.a.| y.<.6 P :.",
"m.B.- N 3 v.R.Y.m.$.w.N # N =.*.-.*.s.8 | 9.P.-.0.,.m 9...4 2 8.",
"w.B.4 N 3 w.P.m.w.0.D.w.N ..,.s.9.9.U.a.L.L.m.3 2 + $ ..K.8. ...",
" .w.N 4 3 %.q.-.D.n.z.K.D.m.m.v.s.a.L.d.].W.i.& < = o 3 m.B.b. .",
"; 4 ; + o ; 3 & G w.z.U.I.z.m.v.d.s.L.Z.].T.5.: X % O 1.%.,. .9.",
"$ $ $ o o . o   > 0.q.n.I.P.I.K.L.Q.^.~.oXd.#.5 % : = S.Y 1 O L ",
"; * $ $ ; O O O V w.,.=.B.]..X|.XX=X{.Y.V.y.P K S A 9 U p : @ : ",
"# # # # . o . o n >.z.%.G =.z.~.L.L.a.a.4.+.B ` ) j.g.] j.j.h.c ",
". # # o   @ O @ b | z.6.%.%.3 b 7 7 6 7 ;.' c K c / Q [ g.W [ h.",
"X ; O . . % 5 b B n b #.7.;.C 3 > 5 G 4.2.S d U I k W [ h E g.E ",
"n C = O : n L n B 5 7 L 3.y.6.6.&.#.>.7.;.S c U x f R [ E h E E ",
"o 0 C ` t.t.' B L d 1 a F $.z.n.N.n.c.2.` S U I g e h [ ~ h h ~ ",
"9 ) } j.t.K K K ` d , 9 p C ` 3.c.c.6.%.D A U I r 9 t W [ j h W ",
"l.t.) } } g l K z r 9 9 0 z Z Y $.3.1.F C U U d e e e g ) Q x x ",
"k.^ x r.h.J J H k r z I Z 0 0 C C _ _ F U Y Z 0 r y e u x ] / g ",
"h.r.T ! ! t f H j z I U Z 9 9 0 0 b F C Y Y Z w d w u u y ( ] c ",
"! r.T ! ~ J J f g.W U U Z d 0 0 1 0 C C C U d 9 z q u t 5 c ' A "
};
